<svg width="26" height="26" viewBox="0 0 26 26" fill="none" xmlns="http://www.w3.org/2000/svg">
<g id="noto:confetti-ball" clip-path="url(#clip0_128_11590)">
<path id="Vector" d="M12.7382 3.84754C12.8289 3.99203 12.8698 4.16171 12.8547 4.33102C12.8395 4.50033 12.7692 4.6601 12.6542 4.78628C11.9929 5.51241 10.5974 6.96137 9.25136 7.80642C7.59078 8.85067 6.1152 9.26784 5.36707 9.42766C5.03579 9.49877 4.69788 9.35004 4.52173 9.06395C4.08692 8.36089 3.42102 6.87294 3.86397 4.8642C4.49089 2.00712 7.93222 0.848071 10.051 1.69245C12.1698 2.53684 12.7382 3.84754 12.7382 3.84754Z" fill="#FFC107"/>
<path id="Vector_2" d="M6.03603 9.48505C5.82186 9.56871 5.65324 9.28115 5.80027 9.08812C6.23126 8.52645 7.05535 7.61383 8.52358 6.45236C10.1162 5.19289 11.2113 4.78435 11.8026 4.65459C12.0068 4.6105 12.1432 4.87568 12.0094 5.05756C11.5744 5.65116 10.6712 6.72734 9.24679 7.72077C7.86536 8.685 6.71346 9.2184 6.03603 9.48505Z" fill="url(#paint0_radial_128_11590)"/>
<path id="Vector_3" d="M7.74373 2.27996C7.80356 2.7669 8.29958 2.96982 8.79802 2.90471C9.33759 2.83516 10.0141 2.79225 9.99624 2.14245C9.97791 1.47067 9.0865 1.43516 8.75596 1.43399C8.27226 1.4343 7.69016 1.84953 7.74373 2.27996Z" fill="#FFEE58"/>
<path id="Vector_4" d="M17.8548 2.24722C20.1886 1.80039 23.4984 2.81236 23.8996 6.76576C24.0526 8.2674 23.3611 9.53949 22.8925 10.2115C22.6613 10.5439 22.2441 10.7004 21.8493 10.5932C21.0784 10.3839 19.6526 9.85041 17.7862 8.51501C16.7484 7.77369 15.3639 6.37348 14.582 5.55155C14.2287 5.18015 14.2328 4.59884 14.5986 4.23984C15.3138 3.53775 16.5591 2.49573 17.8548 2.24722Z" fill="#FFC107"/>
<path id="Vector_5" d="M15.105 5.13375C14.9902 5.01783 15.1193 4.84531 15.2855 4.89461C16.0154 5.11007 17.358 5.57217 18.5262 6.32352C19.7242 7.09578 20.9109 8.2252 21.5104 8.82716C21.6289 8.94506 21.4919 9.12044 21.3242 9.06419C20.558 8.81023 19.1548 8.26681 17.7949 7.32738C16.4127 6.37268 15.5459 5.57734 15.105 5.13375Z" fill="url(#paint1_radial_128_11590)"/>
<path id="Vector_6" d="M17.3548 3.46798C16.6689 3.6735 16.5207 3.0928 16.9079 2.68648C17.1869 2.39322 18.3103 1.91369 19.2345 2.21545C19.8445 2.41552 19.9638 3.50528 19.0901 3.42987C18.4952 3.37805 18.1954 3.21603 17.3548 3.46798Z" fill="#FFEE58"/>
<path id="Vector_7" d="M20.4709 24.0481C18.3092 22.4119 16.9931 19.4276 16.9504 16.0639C16.9125 13.0248 17.8323 10.0148 18.5718 7.59719L19.6977 8.22783C18.9911 10.5415 18.3746 13.2409 18.4095 16.0351C18.4451 18.926 19.54 21.4643 21.3354 22.8226L20.4709 24.0481ZM11.5126 22.8982L11.0084 21.4803C11.7431 21.196 12.222 20.2566 12.0319 19.4714C11.9399 19.0875 11.7103 18.7111 11.4694 18.3131C11.2727 17.9883 11.0677 17.6515 10.9079 17.2705C10.4913 16.2741 10.4571 15.1148 10.8176 14.0912C10.9999 13.5748 11.2636 13.1248 11.5207 12.6895C11.8111 12.1978 12.0829 11.735 12.1786 11.2562C12.2662 10.8128 12.1975 10.332 11.9875 9.93611C11.7967 9.57949 11.4862 9.26191 11.1567 8.92783C10.9076 8.67334 10.6481 8.41054 10.4152 8.10598C9.86419 7.38468 9.68793 6.55873 9.75479 5.65495L10.796 5.32758C10.796 5.32758 10.908 6.36714 11.1267 6.794C11.357 7.24061 11.7241 7.55836 12.0689 7.90868C12.458 8.30572 12.9732 8.65089 13.2656 9.20237C13.6404 9.90755 13.765 10.7659 13.6072 11.559C13.4606 12.296 13.1059 12.8971 12.7636 13.4782C12.5354 13.8662 12.3197 14.2323 12.1873 14.6081C11.9545 15.2707 11.9752 16.0213 12.2464 16.6662C12.3622 16.9436 12.5278 17.2169 12.7049 17.5081C12.9966 17.9893 13.2984 18.4846 13.4472 19.1019C13.8208 20.6358 12.9518 22.3426 11.5126 22.8982Z" fill="#03A9F4"/>
<path id="Vector_8" d="M1.91942 23.5026L1.07782 22.2259C7.30969 18.4664 8.36979 12.3967 8.16852 9.25225L9.37572 8.98737C9.59904 12.4638 8.83132 19.3337 1.91942 23.5026Z" fill="#F48FB1"/>
<path id="Vector_9" d="M18.7157 14.833L18.8066 14.9097C18.835 14.3475 18.9034 13.7848 18.9986 13.2291C18.5409 12.8147 18.1176 12.3754 17.8257 11.8749C17.8176 11.8606 17.8113 11.8464 17.8033 11.8322C17.6627 12.4396 17.5429 13.0622 17.4625 13.6926C17.8671 14.1136 18.3059 14.4871 18.7157 14.833Z" fill="#0076C6"/>
<path id="Vector_10" d="M22.0475 19.2281L20.7301 18.5018C21.1292 17.7808 20.9015 16.8598 20.5566 16.2392C20.108 15.4325 19.3595 14.763 18.6339 14.1158C17.8552 13.4215 16.9735 12.6354 16.4019 11.5925C15.3504 9.67675 15.7182 7.40865 17.1688 5.77326L18.2158 6.45804C17.1723 7.63641 16.9654 9.49048 17.7207 10.8699C18.1669 11.6858 18.9139 12.3496 19.6358 12.9947C20.4163 13.6909 21.2997 14.479 21.8723 15.5089C22.5618 16.752 22.6298 18.1774 22.0475 19.2281ZM2.21546 17.322C2.04518 15.7144 3.26543 14.9736 3.92084 14.5754C3.99953 14.5282 4.09601 14.4691 4.16331 14.423C4.16698 14.2896 4.08861 14.1167 3.93959 13.8221C3.69464 13.3364 3.36058 12.6695 3.70823 11.8753C4.01091 11.1852 4.76244 11.0025 5.26917 10.7632C5.70188 10.5582 6.02373 10.2947 6.20702 9.82958C6.42019 9.2875 6.39571 7.88579 6.39571 7.88579L7.34824 7.41611C7.34824 7.41611 7.54395 8.76769 7.49655 9.44556C7.3622 11.3668 6.26078 11.7828 5.793 12.0041C5.46951 12.1565 5.16354 12.3007 5.08721 12.476C5.03116 12.6038 5.08645 12.7563 5.28505 13.1503C5.52342 13.6224 5.8474 14.2716 5.5517 15.0507C5.40832 15.4302 5.06576 15.6395 4.70366 15.8589C4.06202 16.2487 3.64514 16.5507 3.71149 17.165L2.21546 17.322ZM14.7397 16.2539C14.0832 16.0481 13.6553 15.6192 13.27 15.2536L14.3072 14.1651C14.3072 14.1651 14.6115 14.6925 15.3398 14.9768L14.7397 16.2539ZM14.1252 7.73946L13.0623 7.01218L13.9536 5.80058L15.0184 6.528L14.1252 7.73946ZM16.0028 22.232L14.5729 21.2006L15.8158 20.0004L16.8927 21.1746L16.0028 22.232Z" fill="#F44336"/>
<path id="Vector_11" d="M21.2988 12.5939L22.2907 11.3941L23.563 12.4694L22.5709 13.6692L21.2988 12.5939Z" fill="#FB8C00"/>
<path id="Vector_12" d="M10.8415 11.3453L9.41563 10.493L10.2363 9.79934L11.66 10.6515L10.8415 11.3453Z" fill="#F44336"/>
<path id="Vector_13" d="M12.2563 12.8953C12.2563 12.8953 12.5945 12.9096 13.0095 13.0006C13.3436 12.5732 13.6642 12.1261 13.8498 11.6113C13.3398 11.4874 12.9223 11.5014 12.9223 11.5014L12.2563 12.8953Z" fill="#0076C6"/>
<path id="Vector_14" d="M13.8446 13.3593C13.3658 12.8938 12.5138 12.8651 12.5138 12.8651L13.0247 11.5086C13.0247 11.5086 13.9748 11.4443 14.5637 12.1444L13.8446 13.3593ZM1.35524 18.2547L2.68438 18.2671L2.67232 19.7159L1.34339 19.7032L1.35524 18.2547ZM8.39981 18.4932L7.64166 17.253C8.0319 17.0189 8.39455 16.7339 8.71413 16.4095L9.76121 17.423C9.35434 17.8347 8.89698 18.1942 8.39981 18.4932Z" fill="#FB8C00"/>
<path id="Vector_15" d="M8.42406 22.4538C8.02361 22.0609 7.59653 21.692 7.15294 21.3551L7.99903 20.1686C8.49012 20.5401 8.96255 20.9491 9.40644 21.3837L8.42406 22.4538Z" fill="#F44336"/>
<path id="Vector_16" d="M17.2526 16.6968C17.2665 17.3994 17.3188 17.9076 17.4388 18.5731L18.6817 17.7634L17.6271 16.3308L17.2526 16.6968Z" fill="#0076C6"/>
<path id="Vector_17" d="M15.7037 17.3436L17.1685 16.2989L17.951 17.4617L16.4862 18.5067L15.7037 17.3436Z" fill="#FFC107"/>
<path id="Vector_18" d="M14.6087 24.3899C14.3732 23.8947 14.1043 23.4084 13.8088 22.9445L15.119 22.17C15.4487 22.6873 15.745 23.2237 16.0061 23.7761L14.6087 24.3899Z" fill="#FB8C00"/>
</g>
<defs>
<radialGradient id="paint0_radial_128_11590" cx="0" cy="0" r="1" gradientUnits="userSpaceOnUse" gradientTransform="translate(8.90409 7.07601) rotate(4) scale(2.68237 3.03257)">
<stop offset="0.376" stop-color="#AF5700"/>
<stop offset="1" stop-color="#8F4700"/>
</radialGradient>
<radialGradient id="paint1_radial_128_11590" cx="0" cy="0" r="1" gradientUnits="userSpaceOnUse" gradientTransform="translate(18.307 6.97955) rotate(4) scale(4.12896 3.6261)">
<stop offset="0.376" stop-color="#AF5700"/>
<stop offset="1" stop-color="#8F4700"/>
</radialGradient>
<clipPath id="clip0_128_11590">
<rect width="24" height="24" fill="white" transform="translate(1.86633 0.192139) rotate(4)"/>
</clipPath>
</defs>
</svg>
