<svg width="28" height="26" viewBox="0 0 28 26" fill="none" xmlns="http://www.w3.org/2000/svg">
<g id="Group 2373">
<path id="Line 2" d="M8.73093 18.6225L9.30007 17.8702C11.6184 14.806 14.7156 12.4797 18.2299 11.1632L19.5889 10.6541M19.5889 10.6541L19.5208 9.79377C19.4644 9.08166 19.8648 8.40868 20.5048 8.13991L21.1483 7.86967C21.7927 7.59907 22.4961 8.04693 22.5529 8.7639V8.7639C22.5805 9.113 22.4432 9.45685 22.1849 9.68564L21.771 10.0521C21.4356 10.3492 21.0202 10.5296 20.5843 10.5675L19.5889 10.6541Z" stroke="#FAB12D"/>
<path id="Line 4" d="M10.1814 24.4044L10.7915 24.0844C14.2608 22.2645 18.1682 21.4964 22.033 21.8744L23.2352 21.992M23.2352 21.992L23.5185 21.1875C23.7547 20.5165 24.4051 20.08 25.1078 20.1207L25.7558 20.1583C26.462 20.1992 26.9251 20.9058 26.6877 21.5801V21.5801C26.5696 21.9156 26.2959 22.1738 25.9556 22.2706L25.4611 22.4114C25.0342 22.5329 24.5818 22.5128 24.1714 22.3541L23.2352 21.992Z" stroke="#F2443F"/>
<path id="Line 3" d="M2.52516 18.1391L2.48759 16.7182C2.39197 13.1025 3.2609 9.54742 5.00297 6.42689L5.95585 4.71999M5.95585 4.71999L5.36661 4.09687C4.88867 3.59145 4.77667 2.8403 5.08829 2.23027L5.45689 1.5087C5.77237 0.891127 6.60017 0.781455 7.08402 1.29313V1.29313C7.30929 1.53136 7.41112 1.86162 7.35823 2.18246L7.25635 2.80042C7.18265 3.24752 6.97719 3.65909 6.66671 3.98159L5.95585 4.71999Z" stroke="#2699E3"/>
</g>
</svg>
