<svg xmlns="http://www.w3.org/2000/svg" width="252" height="261" viewBox="0 0 252 261" fill="none">
  <path fill-rule="evenodd" clip-rule="evenodd" d="M248.436 129.234C249.199 100.421 257.595 69.5977 242.415 45.0962C226.859 19.9883 198.041 1.17218 168.519 0.247406C140.717 -0.623505 122.523 27.8197 97.7988 40.566C78.6119 50.4578 53.8115 49.7038 40.1579 66.4239C26.213 83.5006 30.1864 107.715 25.3924 129.234C18.777 158.93 -12.0293 192.381 6.76891 216.303C25.8383 240.57 67.2133 212.282 97.0006 220.359C124.223 227.741 141.079 262.378 169.211 260.351C198.237 258.259 222.994 235.104 238.044 210.196C252.468 186.324 247.698 157.116 248.436 129.234Z" fill="#F2443F" fill-opacity="0.3"/>
</svg>