<svg xmlns="http://www.w3.org/2000/svg" width="261" height="251" viewBox="0 0 261 251" fill="none">
  <path fill-rule="evenodd" clip-rule="evenodd" d="M131.202 2.99994C160.015 2.23704 190.838 -6.15945 215.34 9.02104C240.448 24.5772 259.264 53.3949 260.189 82.9168C261.06 110.719 232.616 128.913 219.87 153.637C209.978 172.824 210.732 197.625 194.012 211.278C176.935 225.223 152.721 221.25 131.202 226.044C101.506 232.659 68.0546 263.465 44.133 244.667C19.8662 225.598 48.1538 184.223 40.0768 154.435C32.6953 127.213 -1.94164 110.357 0.0854578 82.2249C2.17693 53.1991 25.3325 28.4423 50.2398 13.3925C74.1117 -1.03172 103.32 3.73817 131.202 2.99994Z" fill="#2699E3" fill-opacity="0.2"/>
</svg>